<svg preserveAspectRatio="none" overflow="visible" style="display: block;" width="40" height="40" viewBox="0 0 40 40" fill="none" xmlns="http://www.w3.org/2000/svg">
<g id="Frame 53">
<path id="Vector" d="M34.0291 29.4709L31.4132 26.852L32.8466 12.6099H19.1579L18.7996 9.73991H25.9664V4H28.8331V9.73991H36L34.0291 29.4709ZM32.3807 36L4 7.58744L6.04255 5.5426L34.4233 33.9552L32.3807 36ZM4.46585 29.8296V26.9596H25.9664V29.8296H4.46585ZM5.89922 35.5695C5.49309 35.5695 5.15267 35.432 4.87794 35.157C4.60321 34.8819 4.46585 34.5411 4.46585 34.1345V32.6996H25.9664V34.1345C25.9664 34.5411 25.829 34.8819 25.5543 35.157C25.2796 35.432 24.9392 35.5695 24.533 35.5695H5.89922ZM16.0045 15.5157V18.3856C15.885 18.3856 15.7536 18.3797 15.6103 18.3677C15.467 18.3558 15.3356 18.3498 15.2161 18.3498C13.8066 18.3498 12.4748 18.5889 11.2206 19.0673C9.96641 19.5456 8.99291 20.2631 8.30011 21.2197H21.7021L24.5689 24.0897H4.46585C4.46585 21.1958 5.58268 19.0374 7.81635 17.6143C10.05 16.1913 12.5166 15.4798 15.2161 15.4798C15.3356 15.4798 15.467 15.4858 15.6103 15.4978C15.7536 15.5097 15.885 15.5157 16.0045 15.5157Z" fill="#AAC738"/>
</g>
</svg>
